<svg width="96" height="32" viewBox="0 0 96 32" fill="none" xmlns="http://www.w3.org/2000/svg" aria-hidden="true">
  <path d="m40 16v-15.714h4v8.1539c1.4653-0.99866 3.2359-1.5825 5.1429-1.5825 5.0494 0 9.1428 4.0934 9.1428 9.1429s-4.0934 9.1429-9.1428 9.1429c-5.0495 0-9.1429-4.0934-9.1429-9.1429zm9.1429 5.1429c-2.8404 0-5.1429-2.3026-5.1429-5.1429s2.3025-5.1429 5.1429-5.1429c2.8403 0 5.1428 2.3026 5.1428 5.1429s-2.3025 5.1429-5.1428 5.1429z" clip-rule="evenodd" fill="#44307A" fill-rule="evenodd"></path>
  <path d="m34 23.56v1.2967h4v-8.8571c0-5.0495-4.0934-9.1429-9.1429-9.1429-5.0494 0-9.1428 4.0934-9.1428 9.1429s4.0934 9.1429 9.1428 9.1429c1.907 0 3.6776-0.5839 5.1429-1.5825zm-10.286-7.5604c0-2.8403 2.3025-5.1429 5.1428-5.1429 2.8404 0 5.1429 2.3026 5.1429 5.1429s-2.3025 5.1429-5.1429 5.1429c-2.8403 0-5.1428-2.3026-5.1428-5.1429z" clip-rule="evenodd" fill="#44307A" fill-rule="evenodd"></path>
  <path d="m9.1429 10.857c-2.8403 0-5.1429 2.3026-5.1429 5.1429s2.3025 5.1429 5.1429 5.1429c2.1309 0 3.9591-1.2961 4.7394-3.1429h4.184c-0.9121 4.0875-4.561 7.1429-8.9234 7.1429-5.0495 0-9.1429-4.0934-9.1429-9.1429s4.0934-9.1429 9.1429-9.1429c4.3624 0 8.0113 3.0553 8.9234 7.1429h-4.184c-0.7803-1.8468-2.6085-3.1429-4.7394-3.1429z" fill="#44307A"></path>
  <path d="m60.571 7.1429v17.714h4v-17.714h-4z" fill="#44307A"></path>
  <path d="m79.075 0.59124c-0.8523-0.38-1.7963-0.59124-2.7897-0.59124-3.7871 0-6.8571 3.07-6.8571 6.8571v0.28648l-2.5715 2.1e-4v4h2.5715v13.713h4v-13.713h5.1428l5.6348 12.656-1.1149 2.504c-0.6418 1.4416-2.3307 2.0899-3.7722 1.4481l-1.6269 3.6541c3.4597 1.5404 7.513-0.0155 9.0533-3.4752l9.2553-20.788h-4.3785l-5.2268 11.74-4.1699-9.3656c-0.6628-1.4888-2.1234-2.3732-3.6542-2.3741l-5.1428 4.3e-4v-0.28615c0-1.578 1.2792-2.8571 2.8571-2.8571 0.4139 0 0.8072 0.08801 1.1623 0.24633l1.6274-3.6551z" fill="#44307A"></path>
  <path d="m64.857 2.2857c0 1.2624-1.0233 2.2857-2.2857 2.2857-1.2623 0-2.2857-1.0234-2.2857-2.2857 0-1.2624 1.0234-2.2857 2.2857-2.2857 1.2624 0 2.2857 1.0234 2.2857 2.2857z" fill="#44307A"></path>
</svg>
